<svg width="38" height="46" viewBox="0 0 38 46" fill="none" xmlns="http://www.w3.org/2000/svg">
<path d="M14.6023 45.5426C11.8371 45.5426 9.34659 45.0502 7.13068 44.0654C4.93371 43.0616 3.19129 41.5843 1.90341 39.6335C0.63447 37.6828 0 35.2775 0 32.4176C0 29.9555 0.454546 27.9195 1.36364 26.3097C2.27273 24.6998 3.51326 23.4119 5.08523 22.446C6.6572 21.4801 8.42803 20.751 10.3977 20.2585C12.3864 19.7472 14.4413 19.3779 16.5625 19.1506C19.1193 18.8854 21.1932 18.6487 22.7841 18.4403C24.375 18.2131 25.5303 17.8722 26.25 17.4176C26.9886 16.9441 27.358 16.215 27.358 15.2301V15.0597C27.358 12.9195 26.7235 11.2623 25.4545 10.0881C24.1856 8.91384 22.358 8.32671 19.9716 8.32671C17.4527 8.32671 15.4545 8.87596 13.9773 9.97444C12.5189 11.0729 11.5341 12.3703 11.0227 13.8665L1.42045 12.5028C2.17803 9.85133 3.42803 7.63542 5.17045 5.85512C6.91288 4.05588 9.04356 2.71118 11.5625 1.82103C14.0814 0.91194 16.8655 0.457397 19.9148 0.457397C22.017 0.457397 24.1099 0.703606 26.1932 1.19603C28.2765 1.68845 30.1799 2.50285 31.9034 3.63921C33.6269 4.75664 35.0095 6.28126 36.0511 8.21308C37.1117 10.1449 37.642 12.5597 37.642 15.4574V44.6619H27.7557V38.6676H27.4148C26.7898 39.8797 25.9091 41.0161 24.7727 42.0767C23.6553 43.1184 22.2443 43.9612 20.5398 44.6051C18.8542 45.2301 16.875 45.5426 14.6023 45.5426ZM17.2727 37.9858C19.3371 37.9858 21.1269 37.5786 22.642 36.7642C24.1572 35.9309 25.322 34.8324 26.1364 33.4688C26.9697 32.1051 27.3864 30.6184 27.3864 29.0085V23.8665C27.0644 24.1316 26.5152 24.3778 25.7386 24.6051C24.9811 24.8324 24.1288 25.0313 23.1818 25.2017C22.2348 25.3722 21.2973 25.5237 20.3693 25.6563C19.4413 25.7888 18.6364 25.9025 17.9545 25.9972C16.4205 26.2055 15.0473 26.5464 13.8352 27.0199C12.6231 27.4934 11.6667 28.1563 10.9659 29.0085C10.2652 29.8419 9.91477 30.9214 9.91477 32.2472C9.91477 34.1411 10.6061 35.571 11.9886 36.5369C13.3712 37.5029 15.1326 37.9858 17.2727 37.9858Z" fill="white"/>
</svg>
