<svg width="62" height="57" viewBox="0 0 62 57" fill="none" xmlns="http://www.w3.org/2000/svg">
<path d="M46.0076 15.6382C49.0826 15.6382 51.787 16.231 54.1052 17.4351L54.5388 17.6685C56.6704 18.8624 58.3397 20.5348 59.5388 22.6792L59.7751 23.1147C60.917 25.3205 61.4686 27.9361 61.4509 30.9429V56.4946H50.1667V32.3774C50.1667 29.8481 49.4408 27.9321 48.0437 26.562L48.0417 26.5591C46.6619 25.1889 44.7269 24.4761 42.1716 24.4761C40.4404 24.4761 38.9198 24.8213 37.5984 25.4976L37.5964 25.4985C36.2986 26.1559 35.2799 27.1062 34.533 28.3569C33.8121 29.5957 33.4393 31.1163 33.4392 32.9409V56.4946H22.155V16.1509H32.9841V22.2515C34.0373 20.3588 35.5605 18.8258 37.5427 17.6548L37.5447 17.6538L37.9841 17.4077C40.2109 16.2201 42.8925 15.6382 46.0076 15.6382Z" fill="black" stroke="black"/>
<path d="M12.5791 16.1504V56.4941H1.2959V16.1504H12.5791ZM6.96582 0.5C8.71921 0.5 10.2368 1.02954 11.4893 2.10059L11.7217 2.30273C12.847 3.32611 13.4316 4.58017 13.4316 6.0459C13.4316 7.5937 12.7657 8.91475 11.4932 9.98828L11.4922 9.98926C10.2384 11.0454 8.71975 11.5664 6.96582 11.5664C5.22908 11.5664 3.71267 11.0442 2.44238 9.99121L2.43945 9.98828C1.16662 8.91469 0.5 7.59386 0.5 6.0459C0.500041 4.58022 1.0847 3.32609 2.20996 2.30273L2.44238 2.10059C3.71182 1.03119 5.22833 0.500018 6.96582 0.5Z" fill="black" stroke="black"/>
</svg>
