<svg width="98" height="96" viewBox="0 0 98 96" fill="none" xmlns="http://www.w3.org/2000/svg">
<path d="M56.8018 32.915L56.9482 33.4951L57.4932 33.248L86.4941 20.0986L67.2217 45.4473L66.8594 45.9238L67.3926 46.1953L95.7568 60.6709L63.9199 61.4082L63.3223 61.4219L63.4414 62.0078L69.8076 93.208L49.3838 68.7773L49 68.3184L48.6162 68.7773L28.1914 93.208L34.5586 62.0078L34.6777 61.4219L34.0801 61.4082L2.24219 60.6709L30.6074 46.1953L31.1406 45.9238L30.7783 45.4473L11.5049 20.0986L40.5068 33.248L41.0518 33.4951L41.1982 32.915L49 2.03809L56.8018 32.915Z" stroke="black"/>
</svg>
